<?xml version="1.0" encoding="UTF-8" ?>
<svg version="1.1" width="48" height="54" xmlns="http://www.w3.org/2000/svg" shape-rendering="crispEdges">
<rect x="0" y="0" width="8" height="1" fill="#121217" />
<rect x="8" y="0" width="5" height="1" fill="#202128" />
<rect x="13" y="0" width="2" height="1" fill="#121217" />
<rect x="15" y="0" width="17" height="1" fill="#202128" />
<rect x="32" y="0" width="1" height="1" fill="#121217" />
<rect x="33" y="0" width="3" height="1" fill="#202128" />
<rect x="36" y="0" width="12" height="1" fill="#121217" />
<rect x="0" y="1" width="1" height="5" fill="#121217" />
<rect x="1" y="1" width="6" height="1" fill="#4D5258" />
<rect x="7" y="1" width="1" height="4" fill="#41444A" />
<rect x="8" y="1" width="7" height="1" fill="#4D5258" />
<rect x="15" y="1" width="1" height="8" fill="#41444A" />
<rect x="16" y="1" width="15" height="1" fill="#4D5258" />
<rect x="31" y="1" width="1" height="9" fill="#41444A" />
<rect x="32" y="1" width="5" height="1" fill="#4D5258" />
<rect x="37" y="1" width="1" height="9" fill="#41444A" />
<rect x="38" y="1" width="9" height="1" fill="#4D5258" />
<rect x="47" y="1" width="1" height="8" fill="#121217" />
<rect x="1" y="2" width="4" height="1" fill="#4D5258" />
<rect x="5" y="2" width="2" height="1" fill="#41444A" />
<rect x="8" y="2" width="7" height="1" fill="#41444A" />
<rect x="16" y="2" width="4" height="2" fill="#41444A" />
<rect x="20" y="2" width="6" height="1" fill="#4D5258" />
<rect x="26" y="2" width="5" height="2" fill="#41444A" />
<rect x="32" y="2" width="5" height="1" fill="#41444A" />
<rect x="38" y="2" width="4" height="1" fill="#41444A" />
<rect x="42" y="2" width="5" height="1" fill="#4D5258" />
<rect x="1" y="3" width="2" height="3" fill="#4D5258" />
<rect x="3" y="3" width="1" height="8" fill="#41444A" />
<rect x="4" y="3" width="2" height="5" fill="#C0C0C0" />
<rect x="6" y="3" width="1" height="1" fill="#41444A" />
<rect x="8" y="3" width="1" height="1" fill="#41444A" />
<rect x="9" y="3" width="1" height="5" fill="#C0C0C0" />
<rect x="10" y="3" width="1" height="7" fill="#41444A" />
<rect x="11" y="3" width="4" height="1" fill="#C0C0C0" />
<rect x="20" y="3" width="6" height="1" fill="#41444A" />
<rect x="32" y="3" width="4" height="1" fill="#121217" />
<rect x="36" y="3" width="1" height="1" fill="#C0C0C0" />
<rect x="38" y="3" width="1" height="7" fill="#41444A" />
<rect x="39" y="3" width="5" height="1" fill="#121217" />
<rect x="44" y="3" width="1" height="8" fill="#41444A" />
<rect x="45" y="3" width="2" height="3" fill="#4D5258" />
<rect x="6" y="4" width="1" height="2" fill="#C0C0C0" />
<rect x="8" y="4" width="1" height="2" fill="#C0C0C0" />
<rect x="11" y="4" width="2" height="2" fill="#C0C0C0" />
<rect x="13" y="4" width="2" height="1" fill="#41444A" />
<rect x="16" y="4" width="2" height="3" fill="#41444A" />
<rect x="18" y="4" width="3" height="1" fill="#C0C0C0" />
<rect x="21" y="4" width="1" height="5" fill="#41444A" />
<rect x="22" y="4" width="2" height="1" fill="#C0C0C0" />
<rect x="24" y="4" width="2" height="1" fill="#41444A" />
<rect x="26" y="4" width="2" height="1" fill="#C0C0C0" />
<rect x="28" y="4" width="3" height="1" fill="#41444A" />
<rect x="32" y="4" width="1" height="4" fill="#121217" />
<rect x="33" y="4" width="2" height="1" fill="#41444A" />
<rect x="35" y="4" width="1" height="2" fill="#C0C0C0" />
<rect x="36" y="4" width="1" height="4" fill="#121217" />
<rect x="39" y="4" width="1" height="4" fill="#121217" />
<rect x="40" y="4" width="1" height="1" fill="#C0C0C0" />
<rect x="41" y="4" width="1" height="1" fill="#41444A" />
<rect x="42" y="4" width="1" height="1" fill="#C0C0C0" />
<rect x="43" y="4" width="1" height="4" fill="#121217" />
<rect x="7" y="5" width="1" height="2" fill="#C0C0C0" />
<rect x="13" y="5" width="2" height="3" fill="#C0C0C0" />
<rect x="18" y="5" width="1" height="3" fill="#C0C0C0" />
<rect x="19" y="5" width="1" height="1" fill="#41444A" />
<rect x="20" y="5" width="1" height="2" fill="#C0C0C0" />
<rect x="22" y="5" width="1" height="3" fill="#C0C0C0" />
<rect x="23" y="5" width="1" height="4" fill="#41444A" />
<rect x="24" y="5" width="1" height="3" fill="#C0C0C0" />
<rect x="25" y="5" width="1" height="4" fill="#41444A" />
<rect x="26" y="5" width="1" height="2" fill="#C0C0C0" />
<rect x="27" y="5" width="1" height="1" fill="#41444A" />
<rect x="28" y="5" width="1" height="4" fill="#C0C0C0" />
<rect x="29" y="5" width="2" height="4" fill="#41444A" />
<rect x="33" y="5" width="1" height="1" fill="#C0C0C0" />
<rect x="34" y="5" width="1" height="1" fill="#41444A" />
<rect x="40" y="5" width="1" height="1" fill="#41444A" />
<rect x="41" y="5" width="1" height="1" fill="#C0C0C0" />
<rect x="42" y="5" width="1" height="1" fill="#41444A" />
<rect x="0" y="6" width="1" height="4" fill="#202128" />
<rect x="1" y="6" width="1" height="4" fill="#4D5258" />
<rect x="2" y="6" width="1" height="8" fill="#41444A" />
<rect x="6" y="6" width="1" height="5" fill="#41444A" />
<rect x="8" y="6" width="1" height="5" fill="#41444A" />
<rect x="11" y="6" width="2" height="1" fill="#41444A" />
<rect x="19" y="6" width="1" height="1" fill="#C0C0C0" />
<rect x="27" y="6" width="1" height="1" fill="#C0C0C0" />
<rect x="33" y="6" width="1" height="1" fill="#41444A" />
<rect x="34" y="6" width="1" height="1" fill="#C0C0C0" />
<rect x="35" y="6" width="1" height="1" fill="#41444A" />
<rect x="40" y="6" width="1" height="1" fill="#C0C0C0" />
<rect x="41" y="6" width="1" height="1" fill="#41444A" />
<rect x="42" y="6" width="1" height="1" fill="#C0C0C0" />
<rect x="45" y="6" width="1" height="9" fill="#41444A" />
<rect x="46" y="6" width="1" height="2" fill="#4D5258" />
<rect x="7" y="7" width="1" height="4" fill="#41444A" />
<rect x="11" y="7" width="2" height="1" fill="#C0C0C0" />
<rect x="16" y="7" width="1" height="1" fill="#C0C0C0" />
<rect x="17" y="7" width="1" height="3" fill="#41444A" />
<rect x="19" y="7" width="2" height="2" fill="#41444A" />
<rect x="26" y="7" width="2" height="1" fill="#41444A" />
<rect x="33" y="7" width="3" height="1" fill="#121217" />
<rect x="40" y="7" width="3" height="1" fill="#121217" />
<rect x="4" y="8" width="2" height="3" fill="#41444A" />
<rect x="9" y="8" width="1" height="2" fill="#41444A" />
<rect x="11" y="8" width="4" height="1" fill="#41444A" />
<rect x="16" y="8" width="1" height="2" fill="#41444A" />
<rect x="18" y="8" width="1" height="1" fill="#41444A" />
<rect x="22" y="8" width="1" height="1" fill="#41444A" />
<rect x="24" y="8" width="1" height="1" fill="#41444A" />
<rect x="26" y="8" width="1" height="1" fill="#41444A" />
<rect x="27" y="8" width="1" height="1" fill="#C0C0C0" />
<rect x="32" y="8" width="5" height="1" fill="#41444A" />
<rect x="39" y="8" width="5" height="3" fill="#41444A" />
<rect x="46" y="8" width="1" height="1" fill="#41444A" />
<rect x="11" y="9" width="3" height="1" fill="#41444A" />
<rect x="14" y="9" width="2" height="2" fill="#4D5258" />
<rect x="18" y="9" width="13" height="2" fill="#4D5258" />
<rect x="32" y="9" width="1" height="2" fill="#4D5258" />
<rect x="33" y="9" width="4" height="1" fill="#41444A" />
<rect x="46" y="9" width="1" height="2" fill="#4D5258" />
<rect x="47" y="9" width="1" height="2" fill="#202128" />
<rect x="0" y="10" width="1" height="14" fill="#121217" />
<rect x="1" y="10" width="1" height="14" fill="#41444A" />
<rect x="9" y="10" width="2" height="1" fill="#4D5258" />
<rect x="11" y="10" width="1" height="1" fill="#41444A" />
<rect x="12" y="10" width="2" height="1" fill="#4D5258" />
<rect x="16" y="10" width="2" height="1" fill="#4D5258" />
<rect x="31" y="10" width="1" height="1" fill="#4D5258" />
<rect x="33" y="10" width="3" height="1" fill="#4D5258" />
<rect x="36" y="10" width="1" height="1" fill="#41444A" />
<rect x="37" y="10" width="2" height="1" fill="#4D5258" />
<rect x="3" y="11" width="11" height="1" fill="#121217" />
<rect x="14" y="11" width="2" height="1" fill="#202128" />
<rect x="16" y="11" width="1" height="1" fill="#121217" />
<rect x="17" y="11" width="12" height="1" fill="#202128" />
<rect x="29" y="11" width="2" height="1" fill="#121217" />
<rect x="31" y="11" width="2" height="1" fill="#202128" />
<rect x="33" y="11" width="12" height="1" fill="#121217" />
<rect x="46" y="11" width="1" height="10" fill="#41444A" />
<rect x="47" y="11" width="1" height="10" fill="#121217" />
<rect x="3" y="12" width="1" height="2" fill="#121217" />
<rect x="4" y="12" width="6" height="1" fill="#41444A" />
<rect x="10" y="12" width="2" height="1" fill="#4D5258" />
<rect x="12" y="12" width="3" height="1" fill="#41444A" />
<rect x="15" y="12" width="15" height="1" fill="#4D5258" />
<rect x="30" y="12" width="2" height="1" fill="#41444A" />
<rect x="32" y="12" width="2" height="1" fill="#4D5258" />
<rect x="34" y="12" width="1" height="1" fill="#41444A" />
<rect x="35" y="12" width="1" height="1" fill="#4D5258" />
<rect x="36" y="12" width="8" height="1" fill="#41444A" />
<rect x="44" y="12" width="1" height="5" fill="#121217" />
<rect x="4" y="13" width="1" height="6" fill="#41444A" />
<rect x="5" y="13" width="4" height="1" fill="#121217" />
<rect x="9" y="13" width="2" height="1" fill="#202128" />
<rect x="11" y="13" width="2" height="1" fill="#121217" />
<rect x="13" y="13" width="22" height="1" fill="#202128" />
<rect x="35" y="13" width="2" height="1" fill="#121217" />
<rect x="37" y="13" width="3" height="1" fill="#202128" />
<rect x="40" y="13" width="3" height="1" fill="#121217" />
<rect x="43" y="13" width="1" height="10" fill="#41444A" />
<rect x="2" y="14" width="1" height="3" fill="#4D5258" />
<rect x="3" y="14" width="1" height="1" fill="#202128" />
<rect x="5" y="14" width="1" height="4" fill="#121217" />
<rect x="6" y="14" width="12" height="8" fill="#808080" />
<rect x="18" y="14" width="12" height="8" fill="#C0C0C0" />
<rect x="30" y="14" width="12" height="8" fill="#808080" />
<rect x="42" y="14" width="1" height="4" fill="#121217" />
<rect x="3" y="15" width="1" height="1" fill="#121217" />
<rect x="45" y="15" width="1" height="2" fill="#4D5258" />
<rect x="3" y="16" width="1" height="3" fill="#202128" />
<rect x="2" y="17" width="1" height="2" fill="#41444A" />
<rect x="44" y="17" width="1" height="2" fill="#202128" />
<rect x="45" y="17" width="1" height="2" fill="#41444A" />
<rect x="5" y="18" width="1" height="2" fill="#202128" />
<rect x="42" y="18" width="1" height="2" fill="#202128" />
<rect x="2" y="19" width="1" height="24" fill="#4D5258" />
<rect x="3" y="19" width="1" height="2" fill="#121217" />
<rect x="4" y="19" width="1" height="1" fill="#4D5258" />
<rect x="44" y="19" width="1" height="1" fill="#121217" />
<rect x="45" y="19" width="1" height="24" fill="#4D5258" />
<rect x="4" y="20" width="1" height="1" fill="#41444A" />
<rect x="5" y="20" width="1" height="1" fill="#121217" />
<rect x="42" y="20" width="1" height="2" fill="#121217" />
<rect x="44" y="20" width="1" height="3" fill="#202128" />
<rect x="3" y="21" width="1" height="18" fill="#202128" />
<rect x="4" y="21" width="1" height="2" fill="#4D5258" />
<rect x="5" y="21" width="1" height="1" fill="#202128" />
<rect x="46" y="21" width="1" height="2" fill="#4D5258" />
<rect x="47" y="21" width="1" height="2" fill="#202128" />
<rect x="5" y="22" width="1" height="1" fill="#121217" />
<rect x="6" y="22" width="11" height="3" fill="#808080" />
<rect x="17" y="22" width="6" height="1" fill="#121217" />
<rect x="23" y="22" width="8" height="1" fill="#202128" />
<rect x="31" y="22" width="11" height="3" fill="#808080" />
<rect x="42" y="22" width="1" height="17" fill="#202128" />
<rect x="4" y="23" width="1" height="2" fill="#41444A" />
<rect x="5" y="23" width="1" height="13" fill="#202128" />
<rect x="17" y="23" width="1" height="9" fill="#121217" />
<rect x="18" y="23" width="1" height="1" fill="#969696" />
<rect x="19" y="23" width="3" height="7" fill="#AFAFAF" />
<rect x="22" y="23" width="1" height="1" fill="#BABABA" />
<rect x="23" y="23" width="6" height="4" fill="#D8D8D8" />
<rect x="29" y="23" width="1" height="1" fill="#BABABA" />
<rect x="30" y="23" width="1" height="9" fill="#202128" />
<rect x="43" y="23" width="1" height="2" fill="#4D5258" />
<rect x="44" y="23" width="1" height="1" fill="#121217" />
<rect x="46" y="23" width="1" height="2" fill="#41444A" />
<rect x="47" y="23" width="1" height="2" fill="#121217" />
<rect x="0" y="24" width="1" height="2" fill="#202128" />
<rect x="1" y="24" width="1" height="2" fill="#4D5258" />
<rect x="18" y="24" width="1" height="5" fill="#AFAFAF" />
<rect x="22" y="24" width="1" height="7" fill="#D8D8D8" />
<rect x="29" y="24" width="1" height="7" fill="#D8D8D8" />
<rect x="44" y="24" width="1" height="14" fill="#202128" />
<rect x="4" y="25" width="1" height="10" fill="#4D5258" />
<rect x="6" y="25" width="11" height="12" fill="#C0C0C0" />
<rect x="31" y="25" width="11" height="12" fill="#C0C0C0" />
<rect x="43" y="25" width="1" height="1" fill="#41444A" />
<rect x="46" y="25" width="1" height="11" fill="#4D5258" />
<rect x="47" y="25" width="1" height="11" fill="#202128" />
<rect x="0" y="26" width="1" height="1" fill="#121217" />
<rect x="1" y="26" width="1" height="1" fill="#41444A" />
<rect x="43" y="26" width="1" height="10" fill="#4D5258" />
<rect x="0" y="27" width="1" height="10" fill="#202128" />
<rect x="1" y="27" width="1" height="10" fill="#4D5258" />
<rect x="23" y="27" width="1" height="1" fill="#BABABA" />
<rect x="24" y="27" width="1" height="1" fill="#A3A3A3" />
<rect x="25" y="27" width="2" height="2" fill="#D8D8D8" />
<rect x="27" y="27" width="1" height="1" fill="#BABABA" />
<rect x="28" y="27" width="1" height="1" fill="#A3A3A3" />
<rect x="23" y="28" width="2" height="3" fill="#D8D8D8" />
<rect x="27" y="28" width="2" height="3" fill="#D8D8D8" />
<rect x="18" y="29" width="1" height="2" fill="#969696" />
<rect x="25" y="29" width="2" height="1" fill="#BABABA" />
<rect x="19" y="30" width="3" height="1" fill="#969696" />
<rect x="25" y="30" width="2" height="1" fill="#D8D8D8" />
<rect x="18" y="31" width="1" height="8" fill="#121217" />
<rect x="19" y="31" width="4" height="2" fill="#AFAFAF" />
<rect x="23" y="31" width="3" height="1" fill="#969696" />
<rect x="26" y="31" width="2" height="1" fill="#AFAFAF" />
<rect x="28" y="31" width="1" height="7" fill="#969696" />
<rect x="29" y="31" width="1" height="8" fill="#121217" />
<rect x="17" y="32" width="1" height="5" fill="#C0C0C0" />
<rect x="23" y="32" width="1" height="6" fill="#BABABA" />
<rect x="24" y="32" width="4" height="4" fill="#D8D8D8" />
<rect x="30" y="32" width="1" height="5" fill="#C0C0C0" />
<rect x="19" y="33" width="2" height="5" fill="#AFAFAF" />
<rect x="21" y="33" width="2" height="5" fill="#D8D8D8" />
<rect x="4" y="35" width="1" height="2" fill="#41444A" />
<rect x="5" y="36" width="1" height="2" fill="#121217" />
<rect x="24" y="36" width="2" height="4" fill="#D8D8D8" />
<rect x="26" y="36" width="2" height="4" fill="#AFAFAF" />
<rect x="43" y="36" width="1" height="2" fill="#41444A" />
<rect x="46" y="36" width="1" height="2" fill="#41444A" />
<rect x="47" y="36" width="1" height="2" fill="#121217" />
<rect x="0" y="37" width="1" height="3" fill="#121217" />
<rect x="1" y="37" width="1" height="3" fill="#41444A" />
<rect x="4" y="37" width="1" height="3" fill="#4D5258" />
<rect x="6" y="37" width="12" height="11" fill="#808080" />
<rect x="30" y="37" width="12" height="11" fill="#808080" />
<rect x="5" y="38" width="1" height="2" fill="#202128" />
<rect x="19" y="38" width="2" height="1" fill="#121217" />
<rect x="21" y="38" width="2" height="2" fill="#AFAFAF" />
<rect x="23" y="38" width="1" height="2" fill="#D8D8D8" />
<rect x="28" y="38" width="1" height="3" fill="#121217" />
<rect x="43" y="38" width="1" height="2" fill="#4D5258" />
<rect x="44" y="38" width="1" height="3" fill="#121217" />
<rect x="46" y="38" width="1" height="2" fill="#4D5258" />
<rect x="47" y="38" width="1" height="2" fill="#202128" />
<rect x="3" y="39" width="1" height="2" fill="#121217" />
<rect x="18" y="39" width="2" height="9" fill="#C0C0C0" />
<rect x="20" y="39" width="1" height="2" fill="#121217" />
<rect x="29" y="39" width="1" height="9" fill="#C0C0C0" />
<rect x="42" y="39" width="1" height="1" fill="#121217" />
<rect x="0" y="40" width="1" height="1" fill="#202128" />
<rect x="1" y="40" width="1" height="1" fill="#4D5258" />
<rect x="4" y="40" width="1" height="2" fill="#41444A" />
<rect x="5" y="40" width="1" height="1" fill="#121217" />
<rect x="21" y="40" width="2" height="1" fill="#121217" />
<rect x="23" y="40" width="3" height="1" fill="#202128" />
<rect x="26" y="40" width="2" height="1" fill="#121217" />
<rect x="42" y="40" width="1" height="2" fill="#202128" />
<rect x="43" y="40" width="1" height="10" fill="#41444A" />
<rect x="46" y="40" width="1" height="13" fill="#41444A" />
<rect x="47" y="40" width="1" height="14" fill="#121217" />
<rect x="0" y="41" width="1" height="13" fill="#121217" />
<rect x="1" y="41" width="1" height="12" fill="#41444A" />
<rect x="3" y="41" width="1" height="3" fill="#202128" />
<rect x="5" y="41" width="1" height="1" fill="#202128" />
<rect x="20" y="41" width="9" height="7" fill="#C0C0C0" />
<rect x="44" y="41" width="1" height="2" fill="#202128" />
<rect x="4" y="42" width="1" height="1" fill="#4D5258" />
<rect x="5" y="42" width="1" height="7" fill="#121217" />
<rect x="42" y="42" width="1" height="7" fill="#121217" />
<rect x="2" y="43" width="1" height="2" fill="#41444A" />
<rect x="4" y="43" width="1" height="7" fill="#41444A" />
<rect x="44" y="43" width="1" height="1" fill="#121217" />
<rect x="45" y="43" width="1" height="1" fill="#41444A" />
<rect x="3" y="44" width="1" height="1" fill="#121217" />
<rect x="44" y="44" width="1" height="1" fill="#202128" />
<rect x="45" y="44" width="1" height="3" fill="#4D5258" />
<rect x="2" y="45" width="1" height="3" fill="#4D5258" />
<rect x="3" y="45" width="1" height="1" fill="#202128" />
<rect x="44" y="45" width="1" height="6" fill="#121217" />
<rect x="3" y="46" width="1" height="5" fill="#121217" />
<rect x="45" y="47" width="1" height="6" fill="#41444A" />
<rect x="2" y="48" width="1" height="5" fill="#41444A" />
<rect x="6" y="48" width="6" height="1" fill="#121217" />
<rect x="12" y="48" width="2" height="1" fill="#202128" />
<rect x="14" y="48" width="1" height="1" fill="#121217" />
<rect x="15" y="48" width="17" height="1" fill="#202128" />
<rect x="32" y="48" width="2" height="1" fill="#121217" />
<rect x="34" y="48" width="2" height="1" fill="#202128" />
<rect x="36" y="48" width="6" height="1" fill="#121217" />
<rect x="5" y="49" width="5" height="1" fill="#41444A" />
<rect x="10" y="49" width="2" height="1" fill="#4D5258" />
<rect x="12" y="49" width="2" height="1" fill="#41444A" />
<rect x="14" y="49" width="3" height="1" fill="#4D5258" />
<rect x="17" y="49" width="1" height="1" fill="#41444A" />
<rect x="18" y="49" width="11" height="1" fill="#4D5258" />
<rect x="29" y="49" width="2" height="1" fill="#41444A" />
<rect x="31" y="49" width="2" height="1" fill="#4D5258" />
<rect x="33" y="49" width="1" height="1" fill="#41444A" />
<rect x="34" y="49" width="1" height="1" fill="#4D5258" />
<rect x="35" y="49" width="8" height="1" fill="#41444A" />
<rect x="4" y="50" width="4" height="1" fill="#121217" />
<rect x="8" y="50" width="3" height="1" fill="#202128" />
<rect x="11" y="50" width="2" height="1" fill="#121217" />
<rect x="13" y="50" width="21" height="1" fill="#202128" />
<rect x="34" y="50" width="3" height="1" fill="#121217" />
<rect x="37" y="50" width="2" height="1" fill="#202128" />
<rect x="39" y="50" width="5" height="1" fill="#121217" />
<rect x="3" y="51" width="6" height="2" fill="#41444A" />
<rect x="9" y="51" width="3" height="1" fill="#4D5258" />
<rect x="12" y="51" width="3" height="2" fill="#41444A" />
<rect x="15" y="51" width="18" height="1" fill="#4D5258" />
<rect x="33" y="51" width="2" height="2" fill="#41444A" />
<rect x="35" y="51" width="3" height="1" fill="#4D5258" />
<rect x="38" y="51" width="7" height="2" fill="#41444A" />
<rect x="9" y="52" width="3" height="1" fill="#41444A" />
<rect x="15" y="52" width="3" height="1" fill="#41444A" />
<rect x="18" y="52" width="2" height="1" fill="#4D5258" />
<rect x="20" y="52" width="2" height="1" fill="#41444A" />
<rect x="22" y="52" width="7" height="1" fill="#4D5258" />
<rect x="29" y="52" width="4" height="1" fill="#41444A" />
<rect x="35" y="52" width="3" height="1" fill="#41444A" />
<rect x="1" y="53" width="46" height="1" fill="#121217" />
</svg>