<?xml version="1.0" encoding="UTF-8" ?>
<svg version="1.1" width="22" height="13" xmlns="http://www.w3.org/2000/svg" shape-rendering="crispEdges">
<rect x="0" y="0" width="3" height="1" fill="#FFFFFF" />
<rect x="5" y="0" width="4" height="1" fill="#FFFFFF" />
<rect x="0" y="1" width="1" height="3" fill="#FFFFFF" />
<rect x="3" y="1" width="1" height="3" fill="#FFFFFF" />
<rect x="5" y="1" width="1" height="3" fill="#FFFFFF" />
<rect x="8" y="1" width="1" height="3" fill="#FFFFFF" />
<rect x="6" y="3" width="2" height="1" fill="#FFFFFF" />
<rect x="0" y="5" width="10" height="1" fill="#33984B" />
<rect x="18" y="5" width="4" height="1" fill="#FFFFFF" />
<rect x="18" y="6" width="1" height="5" fill="#FFFFFF" />
<rect x="21" y="6" width="1" height="5" fill="#FFFFFF" />
<rect x="2" y="7" width="1" height="4" fill="#FFFFFF" />
<rect x="4" y="7" width="4" height="1" fill="#FFFFFF" />
<rect x="9" y="7" width="1" height="4" fill="#FFFFFF" />
<rect x="12" y="7" width="1" height="2" fill="#FFFFFF" />
<rect x="14" y="7" width="3" height="1" fill="#FFFFFF" />
<rect x="4" y="8" width="1" height="3" fill="#FFFFFF" />
<rect x="7" y="8" width="1" height="3" fill="#FFFFFF" />
<rect x="14" y="8" width="2" height="1" fill="#FFFFFF" />
<rect x="10" y="9" width="2" height="1" fill="#FFFFFF" />
<rect x="14" y="9" width="1" height="2" fill="#FFFFFF" />
<rect x="0" y="10" width="2" height="1" fill="#FFFFFF" />
<rect x="5" y="10" width="2" height="1" fill="#FFFFFF" />
<rect x="12" y="10" width="1" height="1" fill="#FFFFFF" />
<rect x="15" y="10" width="2" height="1" fill="#FFFFFF" />
<rect x="19" y="10" width="2" height="1" fill="#FFFFFF" />
<rect x="0" y="12" width="18" height="1" fill="#33984B" />
</svg>